<svg height="256" viewBox="0 0 256 256" width="256" xmlns="http://www.w3.org/2000/svg"><g fill="none" stroke="#ccc" stroke-width="3"><path d="m83.167 146.996h-62.21c-1.296 0-2.35-1.051-2.35-2.348v-31.677c0-1.297 1.054-2.348 2.35-2.348h62.21c1.296 0 2.348 1.051 2.348 2.348v31.677c0 1.297-1.052 2.348-2.348 2.348z"/><path d="m18.594 134.984h-11.368v-12.351h11.368z"/><path d="m225.516 209.468-2.842-2.036-5.845.361-10.041.868-9.978-1.519-7.76-2.125-8.267-3.757-7.186-2.873-8.801-2.678-6.11-1.984-7.512-2.83-9.69-1.894-7.694-.241-8.976-.897-9.049-1.546-5.842-1.274-6.712-.511-4.24-1.463-3.956-3.257-6.296-3.658-3.701-.965-5.078-1.311-3.535-1.282-2.79-2.013-2.508-3.111-1.098-3.387.214-3.546 2.148-3.779 4.446-3.411 4.927-1.872 6.385-.766 4.574-.441 5.058.246 3.64-.545 2.976-.036 3.283.886 1.794.423 3.374-.087 2.443.668 3.188.045 4.043 1.221 4.512.846 4.248.343s3.58-.109 3.886-.146c.306-.038 5.727-1.1 5.727-1.1l5.244-1.287 4.19-2.147 2.804-3.298 2.132-3.546 1.829-4.986"/><path d="m157.037 137.902 1.52-6.177s1.327-4.978 1.427-5.298c.103-.316 1.633-5.718 1.633-5.718l2.246-6.147 1.736-5.084 2.653-5.086 2.346-3.919"/><path d="m155.384 82.707-2.501 4.047-.319 3.312.651 3.523 1.458 3.271 2.484 2.769 3.209 2.64 3.417 2.098 2.77 1.594"/><path d="m126.692 74.31.612 3.389.506 2.226 1.638 2.013 2.551 1.801 4.284 2.542 4.186 1.059 4.789.424 3.579-.105 3.054-.636 1.57-1.22"/><path d="m108.527 84.162 2.858 2.226 3.164.742 4.282-1.378 3.576-2.013 2.551-2.014 1.632-2.118.739-1.904"/><path d="m249.774 152.396-9.582-16.521-14.458-26.299-7.625-13.994-10.557-20.906-5.682-8.429-5.196-3.371-11.692-2.53-15.265-2.191-13.478-3.371-12.513-3.541-9.09-2.529-6.004-1.182-4.063.34-3.411 1.685-5.683 3.202-12.989 9.104-6.659 4.89-4.392 3.205-2.751 3.033-3.248 5.056-2.922 5.143-3.817 5.059-2.681 3.539-1.464 2.699-.483 1.769.162 1.18.444 1.704 1.337 1.862 1.726 1.456 2.178.877 2.432.592h3.575l3.898-.674 4.789-1.435 4.305-2.612 3.979-3.539 3.647-3.203 2.684-2.867.975-2.276.121-1.699"/><path d="m83.029 103.922.788 1.804 2.025 2.278 2.17 1.439 3.305.517 4.594-.478 3.92-1.21 4.036-2.806 5.315-5.748 3.346-4.385 1.694-3.077.448-1.571 1.933.239 3.366-.323 2.599-1.059 2.749-1.895.97-.939"/><path d="m95.081 109.467 1.752 1.556 2.624 1.571 3.069.23 2.823-.458 3.045-.774 2.917-1.945 2.87-2.514 2.444-3.72 1.426-3.575.588-2.565.498-2.489 2.128.738 2.186.179 1.163-.213 2.761-.379 3.168-1.241 2.601-1.979 1.656-2.419"/><path d="m105.485 112.422 2.471 1.702 2.591.241 2.707-.608 2.821-.85 2.207-1.91 1.863-2.025 1.308-2.191.808-3.034.647-3.71 4.006.406 3.767.079 3.457-.726 2.825-2.105 2.908-3.482 2.111 6.557 2.399 2.992 2.114 2.276 2.11 1.18 2.105 1.35 1.307.421.889 3.624 1.303 2.783 1.706 2.36 2.352 2.528 2.259 2.011"/><path d="m86.579 175.505 1.287-2.079.697-2.571.245-3.651-.583-4.229-1.917-3.506-3.407-2.191-3.298-1.189-3.307.622-3.411 1.656-1.153 1.382-1.059 1.479-.619 2.256"/><path d="m74.308 95.728 1.867-1.175 1.957-1.886 2.314-3.146 1.957-3.145 1.343-2.642 1.114-4.664"/></g></svg>