<svg height="256" viewBox="0 0 256 256" width="256" xmlns="http://www.w3.org/2000/svg"><g fill="none" stroke="#ccc" stroke-width="3"><path d="m137.852 237.211-11.377-28.75-10.775-11.065-14.133-15.857-9.665-18.32-6.879-9.138-9.258-11.025-7.865-12.044-9.952-13.319-5.617-5.616-2.866-6.146.454-5.451-1.802-6.27-.49-4.258-7.781-15.082-.655-3.811 2.291-3.5 4.839-2.07 5.819.842 7.41 3.463 8.399 6.374 5.8 7.213 3.398 6.085 1.452 2.315.244 2.223"/><path d="m74.977 94.033 4.236.265 4.241 3.076 5.166 5.45 4.034 5.041.487 1.455"/><path d="m90.993 110.323 1.385-.645h1.403l2.949 1.71 3.205 2.062 8.355 2.277 5.214-.657 9.806-7.661 2.098-3.317 1.223-3.001.275-3.215 2.008-2.715 3.068-2.8"/><path d="m127.059 97.922s.005-3.177-.212-3.636c-.215-.462.534-7.168.534-7.168l1.591-7.965 1.984-6.087-1.645-4.937s-1.773-7.406-1.763-7.786c.011-.381.805-8.513.805-8.513"/><path d="m128.699 65.6-3.369-3.004-3.128-5.09-.63-3.168"/><path d="m130.817 72.914-3.279 3.244-4.717 3.136-4.422.941-4.753-.964-4.222-2.429s-1.709-4.068-1.7-4.446c.014-.381.478-4.803.478-4.803l3.131-6.514 6.56-11.012 4.939-5.859 2.72-2.021 4.489-3.775 8.073-5.354 6.314-1.915 6.245.359 5.724 1.447 2.299 2.11 2.812 6.638 3.371 10.029 3.539 9.199 3.729 6.586"/><path d="m159.05 35.534 3.455-2.534 5.029-.847 5.102.707 6.154 3.772 4.429 6.076 4.986 9.084 3.999 10.389 5.201 9.546"/><path d="m190.291 57.363 6.007 4.778 4.919 6.125 6.753 8.451 6.503 6.324 4.999 4.496 3.685 5.298 3.137 5.737 1.384 3.565"/><path d="m225.289 96.874 5.956 3.882 3.739 6.206 2.061 6.24-1.235 7.968-4.889 13.787-4.734 13.716-7.709 19.777-2.452 9.186-3.981 8.503-2.405 8.698.914 9.77 4.025 8.225"/><path d="m47.578 89.582 2.872-2.85 1.725-4.745-.809-6.129-1.911-3.731-2.941-1.538-3.991-1.22-2.78.845"/><path d="m102.754 59.445h-67.824c-1.418 0-2.564-1.146-2.564-2.559v-34.537c0-1.414 1.146-2.56 2.564-2.56h67.824c1.414 0 2.56 1.146 2.56 2.56v34.537c0 1.413-1.146 2.559-2.56 2.559z"/><path d="m32.349 46.35h-12.394v-13.467h12.394z"/></g></svg>